<?xml version="1.0" standalone="no"?>
<!DOCTYPE svg PUBLIC "-//W3C//DTD SVG 20010904//EN"
 "http://www.w3.org/TR/2001/REC-SVG-20010904/DTD/svg10.dtd">
<svg version="1.0" xmlns="http://www.w3.org/2000/svg"
 width="2925.000000pt" height="2925.000000pt" viewBox="0 0 2925.000000 2925.000000"
 preserveAspectRatio="xMidYMid meet">
<metadata>
Created by potrace 1.14, written by Peter Selinger 2001-2017
</metadata>
<g transform="translate(0.000000,2925.000000) scale(0.100000,-0.100000)"
fill="#000000" stroke="none">
<path d="M14427 23674 c-1 -1 -81 -5 -177 -8 -186 -7 -249 -11 -370 -22 -41
-3 -94 -8 -117 -9 -23 -2 -63 -6 -90 -9 -26 -3 -66 -8 -88 -10 -86 -9 -161
-19 -180 -22 -11 -2 -40 -7 -65 -10 -50 -6 -82 -11 -120 -18 -14 -3 -43 -8
-65 -11 -22 -3 -67 -10 -100 -16 -33 -5 -70 -12 -83 -14 -12 -2 -30 -6 -40 -9
-9 -3 -34 -7 -55 -10 -58 -9 -348 -74 -477 -107 -63 -17 -125 -32 -137 -35
-31 -6 -323 -93 -353 -104 -14 -6 -34 -12 -45 -14 -24 -5 -342 -113 -370 -126
-11 -5 -83 -34 -160 -63 -821 -317 -1617 -776 -2340 -1351 -82 -65 -152 -122
-155 -125 -3 -3 -32 -28 -65 -55 -33 -28 -83 -70 -110 -95 -28 -26 -96 -86
-150 -136 -177 -159 -476 -464 -682 -695 -166 -187 -487 -596 -603 -770 -8
-12 -22 -32 -31 -44 -85 -111 -371 -570 -465 -744 -16 -30 -44 -81 -63 -115
-56 -104 -216 -426 -264 -532 -85 -188 -94 -210 -171 -405 -43 -107 -82 -204
-86 -215 -22 -50 -145 -425 -186 -565 -78 -266 -154 -578 -199 -810 -9 -46
-44 -245 -50 -280 -3 -19 -7 -46 -10 -60 -7 -37 -13 -78 -20 -139 -4 -30 -8
-63 -11 -74 -3 -19 -14 -105 -19 -157 -2 -14 -6 -56 -10 -95 -10 -95 -12 -117
-20 -215 -4 -47 -8 -107 -10 -135 -23 -284 -23 -891 0 -1185 2 -25 6 -90 10
-145 4 -55 8 -111 10 -125 2 -14 6 -54 10 -90 6 -66 23 -204 30 -250 2 -14 7
-47 10 -75 8 -60 14 -101 20 -135 3 -14 7 -41 10 -60 3 -19 10 -60 15 -90 5
-30 12 -73 16 -95 3 -22 7 -42 9 -45 2 -3 6 -26 10 -50 4 -25 13 -74 22 -110
8 -36 17 -76 19 -90 3 -14 11 -50 19 -80 8 -30 16 -66 19 -80 2 -14 18 -79 35
-144 17 -66 29 -122 26 -124 -3 -3 -399 -5 -880 -5 l-875 0 -1 -56 c0 -31 0
-279 1 -552 0 -395 -2 -498 -12 -501 -7 -2 -935 -4 -2061 -4 -1127 1 -2050 -1
-2052 -4 -4 -6 96 -108 773 -798 211 -215 383 -394 383 -399 -1 -4 -181 -190
-400 -413 -614 -624 -761 -775 -761 -780 0 -3 921 -4 2047 -4 1127 1 2055 0
2065 -3 15 -3 16 -56 16 -629 1 -345 3 -629 6 -632 3 -3 1124 -5 2491 -5
l2486 0 27 -21 c15 -11 32 -24 37 -29 6 -4 35 -26 65 -48 30 -22 64 -47 75
-55 91 -67 409 -281 520 -350 233 -144 478 -281 735 -409 285 -142 348 -170
675 -305 252 -104 772 -278 1005 -336 8 -2 87 -22 175 -44 88 -22 174 -43 190
-46 17 -3 50 -10 75 -15 25 -6 54 -13 65 -15 58 -12 73 -14 105 -20 19 -4 44
-9 55 -11 11 -2 29 -6 40 -8 30 -6 255 -43 295 -49 123 -18 191 -28 230 -32
25 -2 59 -6 75 -9 54 -7 137 -15 310 -30 372 -33 894 -37 1350 -10 60 3 249
20 335 30 226 26 333 40 390 50 14 2 45 7 70 10 25 4 81 13 125 21 44 7 94 16
110 19 17 3 66 12 110 21 44 9 91 18 105 20 14 3 50 11 80 19 30 8 66 16 80
19 343 63 1185 338 1570 513 30 14 69 31 85 38 199 87 559 269 727 366 36 22
69 39 71 39 11 0 413 250 537 334 115 77 280 192 315 218 6 5 45 34 87 66 l78
59 2477 1 c1363 0 2484 1 2490 1 10 1 13 138 15 633 l3 633 2067 0 2067 0 -43
45 c-72 74 -315 321 -730 743 -215 219 -391 404 -391 412 0 7 169 185 375 395
722 735 780 794 780 799 0 4 -929 6 -2065 6 l-2065 0 0 556 0 556 -875 0
c-481 0 -877 2 -880 5 -3 3 8 59 25 124 28 109 94 390 105 453 3 14 7 37 10
51 3 14 8 41 11 60 3 19 7 42 9 50 3 8 7 32 11 54 3 21 7 48 10 60 9 48 52
343 59 402 2 21 6 55 9 75 3 20 8 67 11 105 3 38 8 80 10 94 2 14 6 63 10 110
3 47 8 112 10 145 23 309 23 871 0 1190 -2 28 -6 93 -10 145 -3 52 -8 106 -10
120 -2 14 -6 52 -10 85 -10 108 -15 149 -21 185 -2 19 -7 51 -9 70 -2 19 -7
51 -9 70 -3 19 -8 55 -11 78 -4 24 -20 119 -36 210 -39 222 -38 217 -56 297
-8 39 -17 81 -19 95 -3 14 -12 52 -21 85 -8 33 -17 71 -20 85 -27 148 -241
862 -292 975 -5 11 -31 76 -57 145 -96 254 -201 494 -333 760 -78 155 -188
366 -201 385 -4 6 -20 33 -35 60 -16 28 -33 59 -39 70 -29 51 -111 187 -152
250 -24 39 -48 77 -51 85 -4 8 -11 20 -15 25 -5 6 -58 84 -119 175 -91 135
-163 238 -221 315 -66 88 -269 348 -289 370 -15 17 -55 64 -89 105 -34 41 -85
100 -112 130 -28 30 -87 95 -132 145 -185 205 -596 602 -757 732 -19 15 -47
39 -63 53 -259 222 -552 439 -876 652 -772 506 -1598 883 -2492 1136 -142 41
-419 110 -503 126 -11 3 -40 9 -65 15 -25 5 -58 12 -75 15 -16 3 -91 17 -165
31 -117 22 -163 30 -290 50 -14 2 -50 7 -80 10 -30 4 -57 8 -60 10 -3 2 -39 6
-80 10 -41 4 -82 8 -90 10 -8 2 -49 6 -90 10 -41 4 -82 8 -90 10 -8 2 -60 6
-115 10 -55 4 -116 9 -135 10 -114 11 -794 26 -803 19z m578 -308 c88 -4 178
-9 200 -10 22 -2 85 -7 140 -11 55 -3 111 -8 125 -10 14 -2 48 -6 75 -9 188
-21 332 -40 460 -61 55 -9 116 -18 135 -21 19 -2 50 -9 70 -14 19 -5 51 -11
70 -14 219 -35 662 -148 1000 -255 187 -59 521 -179 615 -221 22 -10 78 -34
125 -53 172 -71 586 -269 720 -344 19 -11 67 -37 105 -58 1008 -552 2001
-1407 2690 -2315 28 -36 55 -72 62 -80 86 -107 444 -632 470 -689 3 -8 30 -53
58 -100 332 -553 645 -1257 825 -1851 12 -41 29 -95 37 -120 21 -63 89 -316
108 -400 2 -8 18 -78 35 -155 30 -128 49 -222 63 -300 3 -16 8 -41 11 -55 6
-34 37 -219 42 -250 2 -14 8 -59 14 -100 6 -41 12 -93 15 -115 2 -22 6 -53 9
-70 3 -16 8 -61 11 -100 4 -38 8 -81 10 -95 2 -14 7 -70 11 -125 3 -55 8 -108
9 -117 2 -9 7 -99 11 -200 18 -453 2 -964 -41 -1328 -2 -19 -7 -60 -10 -90
-17 -151 -79 -559 -90 -593 -2 -7 -6 -29 -9 -49 -3 -21 -11 -59 -17 -85 -6
-27 -13 -60 -16 -75 -4 -24 -87 -376 -98 -418 -3 -8 -12 -43 -21 -77 -15 -57
-19 -63 -43 -64 -33 -1 -2570 -1 -2594 0 -10 1 -16 4 -13 9 2 4 7 28 11 52 3
25 10 72 15 105 5 33 12 87 15 120 4 33 8 76 10 95 30 269 25 877 -10 1105 -4
22 -9 60 -11 85 -3 25 -7 59 -10 75 -3 17 -7 46 -10 65 -2 19 -6 42 -9 50 -2
8 -7 35 -10 60 -4 25 -10 63 -15 85 -5 22 -11 54 -14 70 -7 38 -74 310 -86
350 -142 461 -305 851 -490 1170 -35 61 -68 119 -74 130 -6 11 -28 46 -49 78
-20 31 -37 61 -37 66 0 5 -3 11 -7 13 -5 2 -46 59 -92 128 -46 69 -87 127 -90
130 -3 3 -18 21 -32 40 l-26 35 191 306 c318 509 366 588 366 597 0 5 -15 13
-32 17 -18 4 -37 9 -43 10 -94 24 -356 94 -660 175 -453 120 -585 156 -809
215 -93 24 -170 46 -171 47 -3 2 465 1139 494 1203 5 11 42 99 81 195 39 96
77 189 85 205 7 17 39 93 70 170 31 77 63 154 70 170 29 68 88 211 160 385
118 287 166 402 181 435 7 17 34 82 59 145 26 63 53 129 60 145 8 17 50 118
94 225 44 107 88 216 100 242 24 56 36 59 -150 -38 -79 -41 -180 -93 -224
-115 -44 -23 -132 -68 -195 -100 -63 -33 -221 -114 -350 -181 -129 -66 -289
-149 -355 -183 -66 -34 -205 -106 -310 -160 -223 -114 -460 -237 -670 -345
-82 -43 -231 -119 -330 -170 -99 -51 -247 -127 -330 -170 -208 -107 -444 -229
-680 -350 -110 -56 -258 -133 -330 -170 -71 -37 -209 -108 -305 -158 -96 -49
-260 -133 -365 -187 -104 -54 -247 -127 -317 -164 l-127 -65 -103 53 c-57 29
-213 109 -348 178 -135 69 -276 142 -315 163 -38 21 -173 90 -300 155 -126 65
-279 144 -340 175 -60 31 -209 108 -330 170 -121 62 -274 141 -340 175 -134
70 -369 191 -670 345 -110 56 -258 133 -330 170 -71 37 -211 109 -310 160 -99
51 -247 127 -330 170 -82 43 -233 120 -335 172 -102 53 -255 132 -340 175 -85
44 -263 136 -395 203 -132 68 -246 127 -252 133 -9 6 -13 6 -13 -2 0 -10 102
-263 135 -336 7 -16 28 -66 45 -110 18 -44 40 -98 50 -120 9 -22 30 -71 45
-110 15 -38 36 -88 45 -110 10 -22 46 -107 80 -190 33 -82 65 -159 70 -170 5
-11 21 -49 36 -85 48 -117 93 -228 130 -317 19 -49 42 -104 51 -123 26 -60 31
-72 83 -200 49 -119 76 -186 154 -372 19 -46 85 -204 146 -353 61 -148 117
-283 125 -300 7 -16 23 -55 35 -85 12 -30 28 -68 35 -85 8 -16 48 -113 90
-215 127 -309 117 -278 97 -284 -9 -3 -96 -26 -192 -52 -96 -25 -233 -61 -305
-80 -71 -19 -137 -36 -146 -38 -9 -3 -119 -32 -245 -66 -126 -34 -237 -63
-246 -65 -9 -2 -51 -13 -93 -25 -42 -12 -84 -23 -93 -25 -34 -8 -367 -96 -379
-100 -9 -3 -4 -18 15 -47 29 -44 274 -437 295 -473 7 -11 22 -34 34 -52 13
-17 23 -34 23 -36 0 -3 41 -69 90 -148 50 -78 90 -146 90 -151 0 -5 -33 -55
-73 -111 -181 -252 -327 -493 -466 -772 -25 -49 -45 -92 -46 -95 -1 -3 -16
-36 -34 -75 -156 -336 -302 -799 -376 -1190 -34 -185 -33 -181 -41 -250 -3
-33 -8 -62 -9 -65 -2 -3 -6 -39 -10 -80 -4 -41 -9 -88 -11 -105 -25 -241 -25
-835 0 -985 2 -14 7 -56 10 -95 4 -38 14 -119 22 -178 9 -60 13 -111 10 -114
-4 -5 -2553 -8 -2612 -4 -6 1 -19 31 -29 69 -60 230 -80 310 -110 447 -5 27
-56 275 -60 300 -4 17 -34 206 -50 310 -3 17 -7 50 -10 75 -3 25 -7 61 -10 80
-5 36 -9 71 -20 170 -3 30 -8 71 -10 90 -4 34 -14 157 -20 255 -23 333 -23
864 0 1175 5 78 16 214 21 255 2 22 6 67 9 100 3 33 8 72 10 86 5 27 9 57 20
149 6 52 8 66 19 135 29 183 51 304 76 430 17 83 33 160 36 173 2 12 25 102
50 200 25 97 47 187 50 199 16 80 144 477 212 663 325 885 750 1649 1341 2410
58 74 110 140 116 146 13 14 45 52 115 134 30 36 57 67 60 70 3 3 39 43 80 90
195 220 528 549 745 735 32 28 63 55 69 60 6 6 40 35 76 65 36 30 67 57 70 60
24 24 292 229 440 336 481 349 1086 693 1615 919 17 7 46 20 65 28 119 52 385
154 540 208 98 34 270 92 285 95 6 1 98 27 204 58 107 31 204 58 215 60 12 2
59 14 106 26 47 12 94 24 105 26 11 2 29 6 40 8 11 2 56 12 100 21 44 9 91 19
105 22 14 2 57 10 95 18 76 15 223 40 295 50 25 3 56 8 70 10 14 2 45 7 70 10
25 3 56 8 70 10 14 2 54 6 90 10 36 3 81 8 100 10 56 8 109 13 200 20 47 4
104 8 127 10 24 2 118 7 210 10 93 4 169 8 170 9 5 4 461 -2 598 -8z m-4829
-2695 c5 -5 88 -49 184 -99 203 -104 435 -223 710 -364 107 -55 249 -129 315
-163 66 -34 219 -113 340 -175 121 -62 279 -143 350 -180 72 -37 207 -107 300
-155 94 -48 238 -122 320 -165 243 -125 468 -241 660 -340 99 -51 248 -128
330 -170 83 -43 196 -101 253 -130 57 -29 101 -54 99 -56 -4 -5 -19 -7 -137
-19 -36 -4 -72 -9 -80 -10 -8 -1 -40 -6 -70 -9 -30 -4 -77 -11 -105 -16 -27
-5 -65 -12 -82 -15 -424 -68 -993 -238 -1393 -418 -136 -61 -325 -154 -440
-216 -106 -59 -154 -78 -262 -106 -72 -20 -133 -34 -134 -32 -2 2 -40 91 -84
198 -45 107 -85 203 -90 214 -5 11 -32 76 -61 145 -28 69 -57 139 -64 155 -7
17 -32 77 -55 135 -24 58 -51 123 -60 145 -18 41 -82 196 -265 640 -59 143
-113 274 -120 290 -7 17 -34 82 -60 145 -26 63 -53 129 -60 145 -13 30 -98
234 -137 330 -12 28 -45 107 -74 178 -48 116 -55 143 -28 118z m8904 -14 c0
-8 -3 -17 -7 -21 -5 -4 -8 -11 -9 -14 0 -4 -9 -27 -21 -52 -11 -25 -28 -67
-38 -95 -10 -27 -21 -54 -25 -60 -3 -5 -19 -41 -34 -80 -16 -38 -34 -83 -41
-100 -7 -16 -48 -113 -89 -215 -42 -102 -82 -196 -88 -210 -6 -14 -14 -34 -19
-45 -4 -11 -19 -47 -33 -80 -122 -289 -263 -635 -264 -648 -1 -4 -8 -20 -16
-35 -8 -15 -31 -67 -51 -117 -20 -49 -40 -99 -45 -110 -5 -11 -59 -139 -119
-285 -227 -548 -270 -652 -273 -656 -4 -4 -185 41 -246 62 -23 7 -74 32 -114
54 -385 218 -921 432 -1382 550 -83 21 -162 41 -176 44 -14 2 -68 14 -120 25
-52 11 -111 23 -130 26 -19 3 -42 8 -50 10 -8 2 -33 7 -55 10 -23 3 -50 7 -61
9 -12 2 -45 7 -75 11 -30 4 -65 9 -79 10 -14 2 -54 7 -90 10 -36 4 -80 10 -99
13 -39 8 -79 -15 344 202 99 51 253 130 343 176 89 46 237 123 330 170 92 48
235 121 317 164 83 43 236 121 340 175 105 54 249 128 320 165 72 37 195 100
275 141 80 40 157 81 173 92 15 10 27 15 27 11 0 -3 6 -2 13 4 6 5 102 56 212
112 110 56 250 128 310 160 61 32 214 111 340 175 127 65 289 149 360 187 72
37 133 68 138 68 4 0 7 -6 7 -13z m-4874 -2447 c1 -36 5 -195 8 -355 4 -159 9
-348 11 -420 3 -71 7 -240 10 -375 3 -135 7 -310 10 -390 2 -80 7 -257 10
-395 3 -137 7 -329 10 -425 3 -96 7 -267 10 -380 3 -113 7 -288 10 -390 2
-102 7 -284 10 -405 13 -530 16 -649 20 -805 3 -91 7 -268 10 -395 3 -126 8
-302 10 -390 2 -88 7 -277 11 -420 3 -143 7 -290 8 -327 2 -56 -1 -68 -13 -69
-19 -1 -681 -1 -697 0 -6 1 -17 16 -24 34 -7 17 -18 46 -25 62 -16 37 -211
509 -275 665 -69 168 -359 869 -377 910 -8 19 -19 44 -24 55 -4 11 -47 113
-94 228 -147 358 -255 619 -290 702 -44 105 -318 767 -360 870 -18 44 -82 199
-143 345 -60 146 -142 344 -182 440 -40 96 -83 199 -96 228 -13 29 -24 59 -24
67 0 7 -4 16 -9 19 -5 3 -12 17 -15 31 -4 14 -18 51 -32 83 -43 94 -54 120
-54 127 0 4 -7 21 -15 38 -8 18 -39 92 -70 166 -41 102 -52 137 -42 143 6 5
61 38 120 74 95 58 125 70 240 101 73 19 224 59 337 89 113 31 212 57 220 59
8 1 35 8 60 15 25 7 52 14 60 15 8 2 83 22 165 44 221 60 346 93 585 156 118
32 244 65 280 76 36 10 74 20 85 22 11 2 40 9 65 16 25 7 52 14 60 16 8 2 76
20 150 40 74 20 145 39 157 41 12 2 39 10 60 18 62 23 67 19 69 -54z m1079 5
c91 -24 175 -47 187 -49 20 -4 187 -49 438 -117 123 -34 144 -39 166 -44 19
-4 702 -186 1039 -276 83 -23 166 -44 185 -49 138 -34 223 -61 266 -86 41 -23
181 -111 192 -120 2 -1 -3 -17 -11 -36 -9 -18 -32 -73 -52 -123 -20 -49 -41
-99 -46 -110 -4 -11 -42 -103 -84 -205 -42 -102 -82 -198 -90 -215 -7 -16 -30
-70 -50 -120 -20 -49 -43 -103 -50 -120 -12 -27 -179 -432 -297 -719 -26 -65
-56 -135 -64 -155 -9 -20 -20 -45 -24 -56 -10 -25 11 25 -286 -695 -140 -338
-259 -624 -264 -635 -5 -11 -120 -288 -255 -615 -135 -327 -250 -604 -255
-615 -5 -11 -25 -60 -45 -110 -20 -49 -43 -103 -50 -120 -19 -43 -77 -185
-119 -290 -20 -49 -41 -99 -46 -110 -5 -11 -16 -38 -25 -60 -36 -92 -39 -95
-70 -96 -16 0 -178 -1 -360 -2 l-330 0 1 64 c2 103 14 601 19 759 2 80 7 258
10 395 3 138 8 315 10 395 2 80 6 258 10 395 9 350 13 547 20 790 3 116 7 293
10 395 3 102 7 271 10 375 2 105 7 298 10 430 3 132 8 305 10 385 2 80 7 258
10 395 3 138 8 315 10 395 2 80 7 276 11 435 6 262 10 397 13 401 2 3 88 -18
246 -61z m-4436 -829 c-2 -1 -69 -58 -149 -126 -147 -124 -487 -461 -570 -563
-25 -31 -48 -56 -52 -57 -3 0 -66 96 -139 213 -73 116 -138 221 -146 232 -12
20 -6 22 185 74 108 29 204 54 213 56 9 2 92 24 185 49 93 26 178 48 189 51
11 2 76 20 145 39 125 34 147 39 139 32z m7654 -25 c115 -31 230 -62 247 -66
8 -2 107 -29 220 -59 113 -30 268 -71 345 -91 77 -20 141 -38 142 -39 1 -1
-34 -58 -77 -126 -44 -69 -85 -135 -92 -147 -48 -83 -120 -193 -128 -193 -4 0
-10 4 -12 10 -5 16 -137 159 -278 301 -148 149 -248 242 -396 367 -92 76 -91
75 -69 70 11 -3 55 -15 98 -27z m-7238 -153 c20 -51 44 -109 52 -128 34 -78
43 -98 73 -175 17 -44 38 -93 45 -110 8 -16 30 -70 50 -120 21 -49 43 -103 50
-120 22 -52 82 -197 118 -285 19 -47 162 -391 317 -765 155 -374 378 -914 497
-1200 118 -286 221 -533 229 -549 8 -16 14 -33 14 -37 0 -5 11 -32 24 -61 13
-29 88 -208 166 -398 78 -190 149 -361 157 -380 8 -19 19 -44 24 -55 42 -98
219 -533 221 -544 2 -11 -40 -14 -245 -15 -137 0 -252 1 -257 4 -4 3 -53 79
-110 170 -56 91 -112 181 -125 200 -32 50 -198 316 -210 338 -5 10 -28 47 -51
83 -79 123 -139 219 -149 237 -10 18 -155 251 -210 337 -41 65 -347 555 -360
577 -17 28 -109 177 -135 218 -14 21 -55 88 -92 148 -37 60 -106 169 -152 243
-47 74 -133 213 -192 309 -60 96 -112 177 -116 178 -4 2 -8 7 -8 12 0 8 -101
172 -205 335 -17 28 -103 165 -190 305 -87 140 -168 271 -180 290 -13 19 -34
53 -48 76 l-25 41 117 134 c171 194 402 422 572 564 43 36 293 234 295 235 1
0 19 -42 39 -92z m6921 -43 c7 -5 31 -26 55 -45 209 -169 446 -398 645 -624
l113 -128 -38 -62 c-21 -33 -106 -169 -188 -301 -248 -398 -768 -1230 -970
-1555 -104 -168 -311 -498 -458 -735 -147 -236 -350 -562 -451 -724 -101 -161
-184 -297 -184 -302 0 -5 -4 -9 -8 -9 -5 0 -16 -15 -25 -32 -10 -18 -26 -46
-37 -63 -11 -16 -27 -43 -36 -60 -9 -16 -38 -62 -63 -100 -25 -39 -52 -81 -59
-95 -35 -66 -16 -62 -294 -63 -139 -1 -253 1 -252 4 6 26 31 89 116 294 55
132 106 254 113 270 7 17 39 93 70 170 31 77 63 154 70 170 7 17 61 147 120
290 59 143 113 274 120 290 8 17 35 82 60 145 26 63 53 129 60 145 8 17 26 59
40 95 15 36 33 79 40 95 7 17 70 170 141 340 219 532 325 789 339 820 7 17 23
55 35 85 12 30 28 69 35 85 8 17 30 71 51 120 48 120 342 832 359 870 7 17 45
109 85 205 40 96 78 189 85 205 7 17 41 98 75 182 l63 152 81 -62 c44 -33 86
-66 92 -72z m-8084 -1140 c29 -47 67 -107 83 -134 73 -118 307 -492 416 -666
66 -104 124 -199 129 -210 6 -11 53 -87 105 -169 52 -81 95 -152 95 -157 0 -5
5 -9 10 -9 6 0 10 -4 10 -9 0 -5 32 -58 70 -118 39 -59 73 -115 77 -123 7 -16
207 -338 220 -355 4 -5 26 -39 47 -75 22 -36 54 -87 71 -115 18 -27 130 -207
250 -400 120 -192 249 -399 287 -460 38 -60 74 -117 79 -125 5 -8 94 -152 199
-320 104 -167 187 -306 185 -309 -8 -7 -3261 -5 -3273 3 -6 3 -10 14 -10 24 0
9 -4 46 -10 82 -13 74 -19 120 -28 205 -3 33 -7 71 -10 85 -24 147 -24 837 0
955 2 11 7 56 11 99 4 43 9 88 11 100 2 12 6 41 9 66 6 44 10 68 20 120 3 14
8 43 11 64 5 32 26 127 79 351 7 33 81 274 108 355 92 274 250 620 410 895 77
133 273 433 284 435 1 0 26 -38 55 -85z m9201 -73 c57 -86 139 -218 182 -292
74 -129 237 -449 251 -494 4 -11 17 -43 30 -71 50 -111 138 -355 188 -525 89
-301 143 -583 182 -935 25 -228 24 -853 -1 -970 -3 -11 -7 -49 -11 -85 -8 -88
-10 -108 -19 -158 -4 -23 -8 -52 -10 -65 -1 -12 -6 -38 -9 -57 l-7 -35 -1637
1 c-1182 1 -1636 5 -1635 12 2 6 46 80 99 164 52 84 101 162 107 173 7 11 35
56 63 100 44 69 126 202 174 280 8 14 65 104 125 200 61 97 115 183 120 193 6
9 46 74 90 145 44 70 89 142 99 160 11 17 38 61 61 97 24 36 73 115 110 175
82 134 209 337 240 385 25 40 242 387 265 425 33 55 236 380 258 412 12 19 22
36 22 39 0 3 9 17 19 32 11 15 122 191 246 392 239 384 287 460 291 460 1 0
49 -71 107 -158z m274 -8482 c-30 -23 -330 -219 -390 -256 -27 -16 -62 -37
-78 -46 -75 -46 -104 -62 -249 -142 -85 -48 -166 -92 -180 -100 -98 -54 -560
-276 -575 -276 -2 0 -32 -13 -67 -29 -233 -106 -704 -272 -1033 -365 -178 -50
-469 -123 -566 -141 -13 -3 -80 -16 -149 -30 -69 -14 -143 -27 -165 -30 -22
-3 -62 -10 -90 -15 -27 -6 -68 -12 -90 -15 -22 -2 -51 -7 -65 -9 -14 -3 -49
-8 -79 -11 -30 -4 -61 -8 -70 -10 -9 -1 -45 -6 -81 -9 -36 -4 -81 -9 -100 -11
-51 -6 -124 -13 -215 -20 -44 -4 -100 -8 -125 -11 -263 -22 -854 -22 -1180 1
-143 10 -285 23 -352 31 -21 2 -57 6 -80 9 -45 5 -129 16 -163 21 -11 1 -56 8
-100 13 -44 6 -105 15 -135 21 -30 5 -73 12 -95 15 -22 4 -56 10 -75 15 -19 5
-52 11 -73 14 -61 10 -380 82 -532 121 -840 216 -1673 573 -2420 1040 -111 69
-302 195 -342 225 -20 16 316 17 4957 17 4672 0 4978 -1 4957 -17z"/>
</g>
</svg>
