<?xml version="1.0" standalone="no"?>
<!DOCTYPE svg PUBLIC "-//W3C//DTD SVG 20010904//EN"
 "http://www.w3.org/TR/2001/REC-SVG-20010904/DTD/svg10.dtd">
<svg version="1.0" xmlns="http://www.w3.org/2000/svg"
 width="3340.000000pt" height="3340.000000pt" viewBox="0 0 3340.000000 3340.000000"
 preserveAspectRatio="xMidYMid meet">
<metadata>
Created by potrace 1.11, written by Peter Selinger 2001-2013
</metadata>
<g transform="translate(0.000000,3340.000000) scale(0.100000,-0.100000)"
fill="#000000" stroke="none">
<path d="M16258 25719 c-1484 -71 -2941 -513 -4208 -1277 -2328 -1403 -3901
-3766 -4284 -6432 -61 -429 -83 -701 -92 -1150 -16 -786 74 -1592 263 -2348
l49 -192 -883 0 -883 0 0 -555 0 -555 -2066 0 c-1323 0 -2064 -3 -2062 -10 2
-5 263 -274 580 -597 317 -323 578 -591 580 -595 2 -3 -258 -272 -577 -598
-319 -325 -581 -595 -583 -600 -2 -7 739 -10 2062 -10 l2066 0 0 -635 0 -635
2499 0 c1577 0 2502 -4 2506 -10 3 -5 72 -57 153 -116 1234 -902 2681 -1476
4192 -1663 2300 -285 4594 306 6452 1663 81 59 150 111 153 116 4 6 929 10
2506 10 l2499 0 0 635 0 635 2066 0 c1323 0 2064 3 2062 10 -1 5 -263 274
-580 597 -317 323 -577 593 -577 598 0 6 260 275 577 598 317 323 579 592 580
597 2 7 -739 10 -2062 10 l-2066 0 0 555 0 555 -883 0 -884 0 29 108 c182 692
287 1519 288 2267 1 2405 -943 4686 -2645 6390 -1804 1806 -4266 2756 -6827
2634z m1042 -319 c1831 -139 3477 -787 4881 -1922 253 -203 395 -333 680 -617
360 -361 575 -608 850 -981 368 -497 702 -1065 944 -1605 798 -1782 977 -3775
509 -5673 -25 -101 -52 -206 -60 -233 l-15 -49 -8389 0 -8389 0 -16 53 c-9 28
-36 133 -60 232 -598 2439 -130 4995 1288 7045 296 427 588 780 967 1164 329
333 601 573 960 845 1348 1022 3006 1640 4675 1741 94 6 197 12 230 14 110 7
808 -3 945 -14z m-1661 -11715 c420 -81 697 -312 827 -689 27 -78 64 -259 64
-312 l0 -35 -57 3 -57 3 -18 105 c-66 371 -250 623 -542 740 -228 92 -570 114
-786 51 -360 -104 -624 -393 -735 -805 -51 -192 -57 -274 -53 -788 4 -443 5
-480 26 -581 56 -269 163 -486 321 -650 249 -259 568 -349 990 -280 317 51
552 214 675 468 54 110 80 197 103 337 l18 108 61 0 61 0 -4 -32 c-54 -443
-234 -728 -563 -893 -103 -51 -217 -89 -336 -109 -584 -101 -1048 115 -1298
604 -145 283 -186 519 -186 1080 0 327 12 502 45 666 86 424 318 758 640 917
122 61 202 84 390 111 62 9 333 -3 414 -19z m-7317 -797 l3 -773 1058 -3 1057
-2 0 775 0 775 65 0 65 0 0 -1655 0 -1655 -65 0 -65 0 0 820 0 820 -1060 0
-1060 0 0 -820 0 -820 -60 0 -60 0 0 1655 0 1655 60 0 60 0 2 -772z m4830
-883 c339 -907 618 -1651 618 -1653 0 -2 -30 -2 -67 0 l-67 3 -182 490 -183
490 -814 3 -814 2 -184 -495 -184 -495 -67 0 -68 0 11 28 c10 24 1213 3239
1224 3270 3 9 26 12 82 10 l76 -3 619 -1650z m4280 698 l3 -958 957 958 958
957 86 0 86 0 -732 -739 c-403 -406 -732 -742 -732 -745 1 -4 355 -415 788
-914 l788 -907 -73 -3 c-63 -2 -77 0 -95 17 -11 11 -354 403 -761 870 -407
467 -743 849 -746 848 -4 -1 -124 -110 -268 -242 l-261 -240 0 -627 0 -628
-60 0 -60 0 0 1655 0 1655 60 0 60 0 2 -957z m6068 897 l0 -60 -605 0 -605 0
0 -1595 0 -1595 -60 0 -60 0 0 1595 0 1595 -605 0 -605 0 0 60 0 60 1270 0
1270 0 0 -60z m1697 -1182 c-3 -1369 0 -1308 -66 -1503 -73 -217 -241 -410
-446 -513 -268 -134 -655 -133 -940 2 -294 140 -441 391 -458 784 l-3 72 63 0
63 0 0 -69 c0 -149 53 -343 122 -452 133 -207 363 -311 693 -311 268 -1 454
77 632 265 127 134 193 306 213 552 5 67 10 625 10 1268 l0 1147 60 0 61 0 -4
-1242z m-3547 -2893 c0 -7 -295 -200 -440 -287 -1683 -1015 -3620 -1429 -5570
-1192 -1304 159 -2535 603 -3641 1313 -108 69 -209 136 -225 148 l-29 22 4953
1 c2723 0 4952 -2 4952 -5z"/>
<path d="M12075 12498 c-208 -557 -380 -1019 -383 -1025 -3 -10 154 -13 763
-13 726 0 767 1 762 18 -8 28 -747 2004 -756 2019 -4 9 -152 -373 -386 -999z"/>
</g>
</svg>
