<svg xmlns="http://www.w3.org/2000/svg" version="1.1" id="svg8" x="0" y="0" style="enable-background:new 0 0 3340 3340" xml:space="preserve" viewBox="209 767.5 2922 1805"><style type="text/css" id="style2">.st2{fill:none;stroke:#fff;stroke-width:30;stroke-miterlimit:15.1181}.st6{fill:#fff}</style><g id="layer4"><circle id="path1196" cx="1670" cy="1670" r="887.5" style="fill:none;stroke:#333;stroke-width:30;stroke-linecap:square;stroke-miterlimit:15.1181"/></g><g id="layer1"><g id="g60" style="stroke:#333;stroke-opacity:1"><ellipse id="path1193" cx="1670" cy="1819.8" rx="568.9" ry="539.5" style="stroke:#333;stroke-opacity:1;fill:none;stroke-width:30;stroke-linecap:square;stroke-miterlimit:15.1181"/><path id="path1263" class="st2" d="M1669.9 1287.5v1071.8-1079m.2 7.2v1071.8-1079" style="stroke:#333;stroke-opacity:1"/><path class="st2" id="polyline22" style="stroke:#333;stroke-opacity:1" d="M1670.1 2359.3l476.2-1324.4-476.4 245.4 507.5 134.8-507.3 944.2"/><path class="st2" id="polyline27" style="display:inline;stroke:#333;stroke-opacity:1" d="M1669.9 2359.3l-507.3-944.2 507.5-134.8-476.4-245.4 476.2 1324.4"/></g></g><g id="layer6"><linearGradient id="polygon35_1_" gradientUnits="userSpaceOnUse" x1="209" y1="1200.55" x2="3131" y2="1200.55" gradientTransform="matrix(1 0 0 -1 0 3340)"><stop offset="0" style="stop-color:#fed049;stop-opacity:1" id="stop29"/><stop offset=".5" style="stop-color:#000" id="stop31"/><stop offset="1" style="stop-color:#fed049;stop-opacity:1" id="stop33"/></linearGradient><path id="polygon35" style="display:inline;fill:url(#polygon35_1_)" d="M3130.9 2019.6H209l117.9 119.9L209 2259.3h2922l-117.9-119.9z"/></g><g id="layer5"><path id="rect1274" d="M622.8 1908.3h2094.3v477.9H622.8z" style="fill:#fed049;fill-opacity:1;fill-rule:evenodd;clip-rule:evenodd"/></g><g id="layer7"><g id="text1772"><path id="path1644" class="st6" d="M1044.4 2305.4v-164.5H832.5v164.5h-12.3v-331.8h12.3v154.9h211.9v-154.9h12.3v331.8h-12.3z"/><path id="path1646" class="st6" d="M1113.9 2305.4l124.2-331.8h15l124.2 331.8h-13.4l-36.9-99.1h-162.7l-36.9 99.1h-13.5zm54.9-111.5h153.6l-76.8-205.5-76.8 205.5z"/><path id="path1648" class="st6" d="M1641.4 2203.7h12.3c-3.3 35.9-15.6 62.5-36.7 80s-48.3 26.2-81.6 26.2c-36.5 0-65.6-13.4-87.5-40.3-21.7-26.9-32.6-62-32.6-105.3v-49.7c0-43.3 10.9-78.4 32.6-105.3 21.9-26.9 51-40.3 87.5-40.3 33.3 0 60.5 8.8 81.6 26.4 21.1 17.5 33.3 43.9 36.7 79.3h-12.3c-7-62.3-42.3-93.4-106-93.4-32.2 0-58.3 12.2-78.2 36.5-19.7 24.3-29.6 56.4-29.6 96.4v50.1c0 40.3 9.9 72.5 29.6 96.8 19.9 24.3 46 36.5 78.2 36.5 30.8 0 55.4-7.5 73.6-22.6 18.3-15 29.1-38.8 32.4-71.3z"/><path id="path1650" class="st6" d="M1948.3 2305.4l-152.4-174.5-53.1 49v125.6h-12.3v-331.8h12.3v191.6l54.2-52.9 138.1-138.8h17.8l-147.7 148.6 159 183.2h-15.9z"/><path id="path1652" class="st6" d="M2096.2 1985.9v-12.3H2350v12.3h-120.8v319.5H2217v-319.5h-120.8z"/><path id="path1654" class="st6" d="M2507.5 2204.6v-231.1h12.3v231.1c0 34-9.2 60.1-27.6 78.2-18.4 18.1-41.1 27.1-68.1 27.1-29.3 0-52.6-7.8-70-23.5-17.2-15.8-25.7-40-25.7-72.5h12.3c0 55.8 27.8 83.6 83.4 83.6 22.8 0 42.4-7.8 58.8-23.5 16.4-15.5 24.6-38.7 24.6-69.4z"/></g></g></svg>